# xmcd CD database file
# Copyright (C) 1993-1998 Ti Kan
#
# Track frame offsets:
#  150
#  12694
#  25174
#  39124
#  50737
#  63530
#  76517
#  91718
#  107212
#  119419
#
# Disc length: 1742 seconds
#
# Revision: 1
# Processed by: cddbd v1.4b41PL1 Copyright (c) Steve Scherf et al.
# Submitted via: CDWizzard Release:4.22
#
DISCID=7606cc0a
DTITLE=Los Plateros - Best Songs
DYEAR=1900
DGENRE=
TTITLE0=Only You
TTITLE1=Twilight Time
TTITLE2=Harbour Lights
TTITLE3=I Believe
TTITLE4=Put your hand in the hand
TTITLE5=Crying in the Chappel
TTITLE6=The Great Pretender
TTITLE7=My Prayer
TTITLE8=You've got the magic touch
TTITLE9=Smoke gets in your eyes
EXTD=
EXTT0=
EXTT1=
EXTT2=
EXTT3=
EXTT4=
EXTT5=
EXTT6=
EXTT7=
EXTT8=
EXTT9=
PLAYORDER=
